<?xml version="1.0" encoding="UTF-8" standalone="no"?> <svg width="64" height="64" viewBox="0 0 64 64" fill="none" xmlns="http://www.w3.org/2000/svg">
<path d="M51 23H59C59.5304 23 60.0391 22.7893 60.4142 22.4142C60.7893 22.0391 61 21.5304 61 21C61 20.4696 60.7893 19.9609 60.4142 19.5858C60.0391 19.2107 59.5304 19 59 19H57.82C57.9845 18.5469 58.0373 18.0608 57.9741 17.5829C57.9108 17.105 57.7334 16.6494 57.4567 16.2546C57.18 15.8599 56.8123 15.5376 56.3846 15.3151C55.957 15.0926 55.4821 14.9765 55 14.9765C54.5179 14.9765 54.043 15.0926 53.6154 15.3151C53.1877 15.5376 52.82 15.8599 52.5433 16.2546C52.2666 16.6494 52.0892 17.105 52.0259 17.5829C51.9627 18.0608 52.0155 18.5469 52.18 19H51C50.4696 19 49.9609 19.2107 49.5858 19.5858C49.2107 19.9609 49 20.4696 49 21C49 21.5304 49.2107 22.0391 49.5858 22.4142C49.9609 22.7893 50.4696 23 51 23Z" fill="black"/>
<path d="M9 13H17C17.5304 13 18.0391 12.7893 18.4142 12.4142C18.7893 12.0391 19 11.5304 19 11C19 10.4696 18.7893 9.96085 18.4142 9.58578C18.0391 9.21071 17.5304 8.99999 17 8.99999H15.82C15.9845 8.54686 16.0373 8.06077 15.9741 7.58289C15.9108 7.105 15.7334 6.64939 15.4567 6.25464C15.18 5.85989 14.8123 5.53762 14.3846 5.31513C13.957 5.09264 13.4821 4.97647 13 4.97647C12.5179 4.97647 12.043 5.09264 11.6154 5.31513C11.1877 5.53762 10.82 5.85989 10.5433 6.25464C10.2666 6.64939 10.0892 7.105 10.0259 7.58289C9.96269 8.06077 10.0155 8.54686 10.18 8.99999H9C8.46957 8.99999 7.96086 9.21071 7.58579 9.58578C7.21071 9.96085 7 10.4696 7 11C7 11.5304 7.21071 12.0391 7.58579 12.4142C7.96086 12.7893 8.46957 13 9 13Z" fill="black"/>
<path d="M16.29 34.29C16.4788 34.1027 16.734 33.9975 17 33.9975C17.266 33.9975 17.5212 34.1027 17.71 34.29L19 35.59L19.32 35.26L17 29.63L14.68 35.26L15 35.59L16.29 34.29Z" fill="black"/>
<path d="M36.64 33.77C36.4473 33.9285 36.2028 34.0101 35.9535 33.999C35.7042 33.988 35.4679 33.885 35.29 33.71L32 30.41L28.71 33.71C28.532 33.8848 28.2957 33.9876 28.0465 33.9987C27.7973 34.0098 27.5528 33.9283 27.36 33.77L26.14 32.75L13.56 60H50.44L37.86 32.75L36.64 33.77Z" fill="black"/>
<path d="M20.15 37.27L19.71 37.71C19.5204 37.8959 19.2655 38.0001 19 38.0001C18.7345 38.0001 18.4796 37.8959 18.29 37.71L17 36.41L15.71 37.71C15.5212 37.8974 15.266 38.0025 15 38.0025C14.734 38.0025 14.4788 37.8974 14.29 37.71L13.85 37.27L4.49001 60H11.36L20.95 39.22L20.15 37.27Z" fill="black"/>
<path d="M46.29 34.29C46.4788 34.1027 46.734 33.9975 47 33.9975C47.266 33.9975 47.5212 34.1027 47.71 34.29L49 35.59L49.32 35.26L47 29.63L44.68 35.26L45 35.59L46.29 34.29Z" fill="black"/>
<path d="M33 12V23H33.36L36.99 30.87L36.06 31.65L32.71 28.29C32.5212 28.1026 32.266 27.9975 32 27.9975C31.734 27.9975 31.4788 28.1026 31.29 28.29L27.94 31.65L27.01 30.87L30.64 23H31V4H43V12H33Z" fill="black"/>
<path d="M50.15 37.27L49.71 37.71C49.5204 37.8959 49.2655 38.0001 49 38.0001C48.7345 38.0001 48.4796 37.8959 48.29 37.71L47 36.41L45.71 37.71C45.5212 37.8974 45.266 38.0025 45 38.0025C44.734 38.0025 44.4788 37.8974 44.29 37.71L43.85 37.27L43.05 39.22L52.64 60H59.51L50.15 37.27Z" fill="black"/>
</svg>
